<?xml version="1.0" standalone="no"?>
<!DOCTYPE svg PUBLIC "-//W3C//DTD SVG 20010904//EN"
 "http://www.w3.org/TR/2001/REC-SVG-20010904/DTD/svg10.dtd">
<svg version="1.0" xmlns="http://www.w3.org/2000/svg"
 width="2200.000000pt" height="980.000000pt" viewBox="0 0 922.000000 980.000000"
 preserveAspectRatio="xMidYMid meet">

 
<g transform="translate(0.000000,980.000000) scale(0.100000,-0.100000)"
fill="#000000" stroke="none">
<path d="M8183 9763 c-87 -66 -336 -279 -533 -455 -106 -95 -207 -185 -224
-199 l-30 -26 26 -39 c27 -40 195 -226 209 -232 5 -2 88 65 184 150 199 173
271 226 284 212 5 -5 37 -153 70 -329 133 -709 610 -3326 632 -3470 l12 -80
-38 -75 c-78 -155 -301 -566 -987 -1815 -530 -967 -618 -1129 -618 -1143 0 -6
19 -22 43 -36 54 -32 238 -106 263 -106 14 0 43 43 113 167 226 403 1166 2129
1484 2725 l127 236 -50 279 c-27 153 -164 908 -304 1678 -273 1498 -366 2016
-366 2040 0 15 116 -40 388 -185 126 -67 166 -74 199 -37 21 22 147 266 141
272 -19 19 -955 505 -972 505 -2 0 -26 -17 -53 -37z"/>
<path d="M4195 8360 l-199 -200 -197 195 c-108 107 -201 195 -206 195 -15 0
-253 -229 -253 -243 0 -7 89 -101 197 -209 l198 -198 -200 -200 -200 -200 130
-130 130 -130 200 200 200 200 197 -197 198 -198 130 130 130 130 -197 197
-198 198 203 203 202 202 -72 70 c-40 39 -100 96 -133 127 l-60 58 -200 -200z"/>
<path d="M6600 8365 l-194 -195 -192 190 c-105 105 -196 190 -203 190 -15 0
-261 -239 -261 -254 0 -6 87 -97 192 -203 l193 -193 -195 -195 -195 -195 125
-125 c69 -69 128 -125 133 -125 4 0 96 83 205 185 l197 185 195 -195 195 -195
135 135 135 135 -195 195 -195 195 193 193 c105 106 192 197 192 202 0 10
-251 265 -260 265 -3 0 -93 -88 -200 -195z"/>
<path d="M893 6328 l-203 -203 -194 194 -194 194 -71 -63 c-40 -35 -97 -92
-128 -128 l-56 -64 194 -194 194 -194 -203 -203 -202 -202 130 -130 130 -129
198 197 c110 108 203 197 208 197 5 0 98 -89 206 -197 l198 -198 127 128 128
127 -193 193 c-105 106 -192 196 -192 201 0 5 83 94 185 197 118 121 185 196
185 209 0 13 -47 68 -122 146 l-123 125 -202 -203z"/>
<path d="M3122 6328 l-202 -203 -198 198 -197 197 -130 -130 -130 -130 198
-198 197 -197 -200 -200 -201 -200 130 -128 c113 -112 133 -127 150 -118 10 6
103 93 206 193 l186 181 195 -194 194 -194 130 130 130 130 -195 195 -195 195
202 202 203 203 -135 135 -135 135 -203 -202z"/>
<path d="M4625 6390 l-130 -130 198 -197 197 -198 -203 -203 -202 -203 119
-115 c65 -63 128 -120 138 -125 17 -9 44 14 212 180 106 105 196 191 201 191
6 0 96 -87 202 -192 l193 -193 130 130 130 130 -197 197 -198 198 195 194
c107 106 196 198 197 202 2 5 -53 65 -121 133 l-125 124 -68 -61 c-37 -33 -95
-88 -128 -122 -33 -34 -95 -93 -138 -132 l-78 -71 -197 196 -197 197 -130
-130z"/>
<path d="M1650 4425 c-87 -20 -231 -91 -305 -152 -108 -88 -202 -227 -239
-352 -22 -75 -22 -343 -1 -426 28 -108 81 -191 190 -300 107 -107 180 -157
284 -192 58 -20 86 -22 236 -22 191 0 248 12 359 79 165 100 278 241 342 425
26 73 28 92 28 220 0 125 -3 149 -27 220 -39 116 -91 199 -187 295 -93 94
-185 149 -315 190 -91 29 -271 36 -365 15z m215 -356 c82 -15 130 -42 201
-113 85 -85 107 -131 112 -236 6 -121 -19 -183 -107 -271 -49 -49 -81 -72
-126 -89 -157 -60 -328 -8 -426 129 -73 101 -91 241 -48 357 37 98 154 197
266 223 53 12 62 12 128 0z"/>
<path d="M3915 4434 c-116 -25 -211 -65 -299 -128 -120 -86 -231 -230 -274
-356 -24 -70 -34 -235 -22 -364 7 -89 13 -110 54 -190 95 -192 269 -345 455
-400 76 -22 355 -23 432 0 227 66 429 280 495 524 24 89 25 272 1 360 -88 330
-391 563 -726 559 -53 -1 -105 -3 -116 -5z m257 -390 c107 -43 181 -121 220
-232 58 -165 -30 -362 -196 -439 -54 -25 -72 -28 -161 -28 -81 0 -109 4 -146
21 -136 63 -232 229 -215 374 15 125 102 245 219 301 58 28 68 30 147 26 49
-3 105 -13 132 -23z"/>
<path d="M6094 4420 c-232 -61 -430 -236 -522 -462 -22 -55 -26 -82 -30 -213
-5 -182 5 -243 59 -352 77 -155 203 -279 368 -361 l94 -47 206 0 c205 0 206 0
271 29 358 157 541 544 434 916 -36 127 -137 272 -244 351 -181 135 -439 191
-636 139z m263 -363 c121 -32 228 -128 259 -233 54 -186 -20 -365 -184 -446
-89 -44 -206 -51 -294 -18 -80 30 -159 104 -200 188 -30 60 -33 75 -33 157 0
76 4 99 26 146 80 171 248 252 426 206z"/>
<path d="M750 2468 c-176 -79 -681 -335 -714 -361 l-28 -23 107 -490 c58 -269
111 -510 117 -537 10 -41 15 -47 37 -47 36 1 194 36 268 61 55 18 62 23 58 42
-24 101 -115 550 -115 565 0 24 -47 48 965 -492 l740 -395 7 -98 c14 -177 75
-324 187 -446 287 -311 755 -328 1054 -39 103 100 195 256 218 371 16 81 6
296 -16 371 -59 192 -220 371 -420 467 l-80 38 -210 0 -210 0 -67 -32 c-96
-45 -181 -106 -273 -194 l-81 -78 -650 348 c-945 506 -948 508 -952 520 -2 7
69 47 167 93 94 45 171 87 171 93 0 17 -148 315 -157 315 -4 0 -60 -24 -123
-52z m2343 -1406 c76 -38 133 -97 174 -181 24 -48 28 -68 28 -141 0 -77 -3
-92 -34 -153 -43 -85 -119 -157 -199 -187 -47 -18 -73 -21 -152 -18 -85 3
-102 7 -158 38 -35 18 -79 52 -99 74 -96 110 -123 272 -67 393 10 21 50 70 88
109 90 90 126 104 257 101 85 -2 103 -6 162 -35z"/>
<path d="M6270 2009 c-68 -13 -197 -80 -276 -142 -116 -91 -197 -213 -245
-367 -31 -98 -33 -299 -6 -400 57 -206 190 -365 389 -465 120 -60 211 -79 351
-73 205 9 340 71 498 228 115 114 171 213 194 345 17 94 19 261 4 325 -16 71
-92 220 -153 297 -93 119 -250 220 -385 249 -73 15 -298 17 -371 3z m341 -381
c153 -70 219 -202 198 -397 -9 -81 -25 -116 -82 -179 -56 -60 -104 -89 -179
-108 -172 -44 -355 37 -424 188 -25 55 -28 74 -28 153 0 112 26 182 90 254 83
93 155 122 284 118 66 -2 98 -9 141 -29z"/>
</g>
</svg>
