<svg viewBox="1 -1 511.999 511"  xmlns="http://www.w3.org/2000/svg"><path d="m145.660156 73.738281v4h259.890625c14.65625 0 26.648438 11.992188 26.648438 26.648438v330.167969h45.503906c14.660156 0 26.652344-11.992188 26.652344-26.648438v-334.167969c-12.597657 0-331.480469 0-358.695313 0zm0 0" fill="#b4dbff"/><path d="m145.660156 77.738281h259.890625c14.65625 0 26.648438 11.992188 26.648438 26.648438v330.167969h32.003906v-332.167969c0-10.449219-2.855469-20.238281-7.808594-28.648438-93.015625 0-289.625 0-310.734375 0zm0 0" fill="#8bcaff"/><path d="m7.355469 141.765625v334.167969c0 14.65625 11.992187 26.648437 26.648437 26.648437h373.546875c14.65625 0 26.648438-11.992187 26.648438-26.648437v-334.167969zm0 0" fill="#d9edff"/><path d="m36.605469 475.933594v-334.167969h-29.25v334.167969c0 14.65625 11.992187 26.648437 26.648437 26.648437h29.253906c-14.65625 0-26.652343-11.992187-26.652343-26.648437zm0 0" fill="#b4dbff"/><path d="m477.703125 7.707031h-332.042969v68.03125h358.695313v-41.378906c0-14.65625-11.992188-26.652344-26.652344-26.652344zm0 0" fill="#4f66d1"/><path d="m457.527344 75.738281c-9.550782-17.835937-28.367188-30.003906-49.976563-30.003906h-261.890625v30.003906zm0 0" fill="#314dca"/><path d="m407.550781 75.738281h-332.042969v68.027344h358.695313v-41.378906c-.003906-14.65625-11.996094-26.648438-26.652344-26.648438zm0 0" fill="#6c7fd9"/><path d="m147.660156 7.707031h-43.5c-14.660156 0-26.652344 11.996094-26.652344 26.652344v41.378906h70.152344zm0 0" fill="#ff4755"/><path d="m116.480469 45.734375c-4.953125 0-8.972657-4.015625-8.972657-8.96875v-2.40625c0-14.65625 11.996094-26.648437 26.652344-26.648437h-30c-14.660156 0-26.652344 11.992187-26.652344 26.648437v41.378906h70.152344v-30h-31.179687zm0 0" fill="#fc2b3a"/><path d="m77.507812 75.738281h-43.503906c-14.65625 0-26.648437 11.992188-26.648437 26.648438v41.378906h70.152343zm0 0" fill="#ff646f"/><path d="m63.257812 75.738281h-29.253906c-14.65625 0-26.648437 11.992188-26.648437 26.648438v41.378906h29.25v-41.378906c0-14.65625 11.996093-26.648438 26.652343-26.648438zm0 0" fill="#ff4755"/><path d="m273.140625 362.679688c-4.230469-5.78125-2.976563-13.894532 2.804687-18.125l41.15625-30.132813-41.15625-30.132813c-5.78125-4.230468-7.035156-12.34375-2.804687-18.121093 4.230469-5.777344 12.34375-7.035157 18.125-2.804688l55.449219 40.597657c7.074218 5.175781 7.070312 15.75 0 20.925781l-55.449219 40.59375c-5.78125 4.230469-13.894531 2.976562-18.125-2.800781zm0 0" fill="#6c7fd9"/><path d="m150.292969 365.480469-55.453125-40.59375c-7.070313-5.175781-7.066406-15.75 0-20.925781l55.453125-40.597657c5.777343-4.230469 13.890625-2.972656 18.121093 2.804688 4.234376 5.777343 2.976563 13.890625-2.800781 18.121093l-41.160156 30.132813 41.160156 30.132813c5.777344 4.230468 7.03125 12.34375 2.800781 18.125-4.226562 5.773437-12.339843 7.035156-18.121093 2.800781zm0 0" fill="#6c7fd9"/><path d="m181.96875 391.320312c-6.421875-3.167968-9.0625-10.941406-5.894531-17.367187l64.402343-130.535156c3.167969-6.425781 10.941407-9.0625 17.363282-5.894531 6.421875 3.171874 9.0625 10.945312 5.894531 17.367187l-64.402344 130.539063c-3.164062 6.421874-10.941406 9.058593-17.363281 5.890624zm0 0" fill="#6c7fd9"/><g fill="#4f66d1"><path d="m292 362.480469c-4.109375-5.835938-2.46875-13.960938 3.292969-18.179688l36.363281-26.621093c2.203125-1.613282 2.203125-4.902344 0-6.515626l-36.363281-26.621093c-5.761719-4.214844-7.402344-12.339844-3.292969-18.175781.390625-.554688.824219-1.054688 1.28125-1.527344l-2.015625-1.476563c-5.777344-4.230469-13.890625-2.972656-18.121094 2.804688-4.230469 5.777343-2.976562 13.890625 2.800781 18.121093l41.160157 30.132813-41.160157 30.132813c-5.777343 4.230468-7.03125 12.34375-2.800781 18.125 4.230469 5.777343 12.34375 7.03125 18.121094 2.800781l2.015625-1.472657c-.457031-.472656-.890625-.972656-1.28125-1.527343zm0 0"/><path d="m113.84375 324.886719c-7.074219-5.175781-7.070312-15.75 0-20.925781l53.4375-39.121094c-4.433594-4.609375-11.6875-5.355469-16.988281-1.476563l-55.453125 40.597657c-7.066406 5.175781-7.070313 15.75 0 20.925781l55.453125 40.59375c5.304687 3.882812 12.558593 3.132812 16.988281-1.472657zm0 0"/><path d="m195.078125 373.953125 64.398437-130.535156c.570313-1.15625 1.292969-2.179688 2.125-3.078125-1.046874-1.128906-2.296874-2.09375-3.757812-2.816406-6.421875-3.167969-14.199219-.53125-17.367188 5.894531l-64.398437 130.535156c-3.167969 6.425781-.53125 14.199219 5.890625 17.367187 5.269531 2.601563 11.445312 1.285157 15.242188-2.8125-3.554688-3.832031-4.582032-9.589843-2.132813-14.554687zm0 0"/></g><path d="m477.847656.5c-16.660156 0-341.453125 0-373.542968 0-18.832032 0-34.152344 15.320312-34.152344 34.148438v33.878906h-36c-18.832032 0-34.152344 15.320312-34.152344 34.152344v373.542968c0 18.832032 15.320312 34.152344 34.148438 34.152344h164.84375c4.144531 0 7.5-3.359375 7.5-7.503906 0-4.140625-3.355469-7.5-7.5-7.5h-164.84375c-10.558594 0-19.148438-8.589844-19.148438-19.148438v-324.664062h411.84375v324.667968c0 10.558594-8.589844 19.148438-19.148438 19.148438h-173.699218c-4.144532 0-7.5 3.359375-7.5 7.5s3.355468 7.5 7.5 7.5h173.699218c18.832032 0 34.148438-15.320312 34.148438-34.148438v-33.878906h36.003906c18.832032 0 34.148438-15.320312 34.148438-34.152344v-156.15625c0-4.140624-3.355469-7.5-7.5-7.5-4.140625 0-7.5 3.359376-7.5 7.5v156.15625c0 10.558594-8.589844 19.148438-19.148438 19.148438h-36.003906v-324.664062c0-7.09375-2.171875-13.683594-5.886719-19.148438h61.042969v133.507812c0 4.140626 3.355469 7.5 7.5 7.5 4.140625 0 7.5-3.359374 7.5-7.5 0-3.941406 0-176.980468 0-182.386718 0-18.832032-15.320312-34.152344-34.152344-34.152344zm-373.542968 15h36v53.027344h-55.152344v-33.878906c0-10.558594 8.589844-19.148438 19.152344-19.148438zm-89.304688 121.058594v-33.878906c0-10.558594 8.589844-19.148438 19.148438-19.148438h36.003906v53.027344zm70.152344 0v-53.03125h322.542968c10.558594 0 19.148438 8.59375 19.148438 19.152344v33.875h-341.691406zm70.15625-68.03125v-53.027344h322.539062c10.558594 0 19.152344 8.589844 19.152344 19.148438v33.878906c-3.265625 0-334.417969 0-341.691406 0zm0 0"/><path d="m470.703125 34.511719h-20.964844c-4.140625 0-7.5 3.359375-7.5 7.503906 0 4.140625 3.359375 7.5 7.5 7.5h20.964844c4.140625 0 7.5-3.359375 7.5-7.5 0-4.144531-3.359375-7.503906-7.5-7.503906zm0 0"/><path d="m400.546875 102.542969h-20.960937c-4.140626 0-7.5 3.359375-7.5 7.5 0 4.144531 3.359374 7.5 7.5 7.5h20.960937c4.144531 0 7.5-3.355469 7.5-7.5 0-4.140625-3.355469-7.5-7.5-7.5zm0 0"/><path d="m194.425781 399.363281c5.179688-1.753906 9.359375-5.421875 11.777344-10.324219l57.09375-115.722656c-.25 6.71875 2.734375 13.199219 8.359375 17.316406l32.894531 24.082032-32.890625 24.078125c-4.414062 3.230469-7.300781 7.984375-8.140625 13.386719-2.777343 17.96875 17.652344 30.378906 32.320313 19.644531l55.449218-40.59375c11.175782-8.183594 11.175782-24.851563 0-33.03125l-55.449218-40.59375c-7.792969-5.707031-18.164063-5.082031-25.203125.816406 4.933593-10.105469.761719-22.351563-9.332031-27.332031-10.121094-4.992188-22.417969-.820313-27.410157 9.300781l-55.503906 112.503906c-.648437-5.441406-3.441406-10.617187-8.203125-14.101562l-32.894531-24.078125 32.894531-24.082032c9.125-6.675781 11.109375-19.476562 4.425781-28.605468-6.683593-9.132813-19.480469-11.105469-28.605469-4.421875l-55.449218 40.59375c-11.175782 8.179687-11.179688 24.847656-.003906 33.03125l55.453124 40.59375c6.832032 5.003906 15.773438 5.148437 22.667969.996093-6.074219 16.179688 9.515625 32.054688 25.75 26.542969zm88.488281-130.648437c3.085938-.472656-.828124-2.589844 59.515626 41.589844 2.980468 2.179687 2.980468 6.636718 0 8.820312l-55.449219 40.59375c-3.917969 2.867188-9.375-.445312-8.632813-5.246094.484375-3.121094-1.03125-1.230468 43.332032-33.707031 4.089843-3 4.085937-9.113281 0-12.105469-44.484376-32.566406-42.855469-30.625-43.332032-33.707031-.460937-2.984375 1.578125-5.773437 4.566406-6.238281zm-99.964843 108.847656 64.398437-130.535156c1.332032-2.703125 4.617188-3.820313 7.320313-2.484375 2.703125 1.332031 3.816406 4.617187 2.484375 7.320312l-64.398438 130.539063c-1.335937 2.703125-4.605468 3.820312-7.324218 2.484375-2.714844-1.34375-3.816407-4.617188-2.480469-7.324219zm-20.4375-19.023438c-1.785157 2.429688-5.210938 2.960938-7.644531 1.179688l-55.449219-40.59375c-2.984375-2.183594-2.980469-6.640625 0-8.820312l55.449219-40.597657c2.421874-1.773437 5.84375-1.273437 7.640624 1.183594 1.785157 2.433594 1.257813 5.855469-1.183593 7.636719l-41.15625 30.132812c-4.09375 3-4.085938 9.113282 0 12.105469l41.15625 30.132813c2.433593 1.78125 2.964843 5.207031 1.1875 7.640624zm0 0"/></svg>