<svg height="512pt" viewBox="0 -32 512 511" width="512pt" xmlns="http://www.w3.org/2000/svg"><path d="m477.34375 248.175781c-3.835938-5.75-11.105469-8.132812-17.601562-5.773437l-101.710938 36.988281-10.117188-60.714844 89.335938-28.203125c7.5625-2.390625 11.960938-10.25 10.035156-17.945312l-16.066406-64.265625c-2.007812-8.035157-10.148438-12.921875-18.191406-10.914063-.375.09375-.738282.214844-1.097656.335938l-.003907-.011719s-7.65625 2.550781-19.4375 6.476563c-32.027343-63.238282-97.292969-103.648438-168.621093-103.648438h-16.066407c-111.445312 0-207.800781 89.769531-207.800781 207.800781v96.398438c0 6.136719 3.734375 11.648437 9.429688 13.929687l321.332031 128.53125c1.769531.707032 3.664062 1.074219 5.570312 1.074219h144.601563c6.882812 0 12.882812-4.6875 14.550781-11.363281l16.066406-64.265625c.296875-1.191407.449219-2.414063.449219-3.640625v-6.335938c0-40.894531-11.984375-80.472656-34.65625-114.453125zm-73.441406 68.003907c8.753906 15.621093 13.515625 33.21875 13.816406 51l-12.765625 51.054687h-23.777344l-18.125-108.75 30.726563-11.171875zm-124.832032-133.175782c1.804688-4.480468 6.273438-11.503906 15.417969-14.5625l13.867188-4.625 17.925781 107.554688-67.523438-37.621094zm63.863282 5.785156-5.761719-34.578124 68.871094-22.957032 8.714843 34.859375zm-312.933594 19.511719c0-99.726562 81.199219-177.800781 177.800781-177.800781h16.066407c58.53125 0 112.214843 32.34375 139.800781 83.253906-9.476563 3.15625-67.3125 22.4375-78.6875 26.230469-15.367188 5.144531-27.664063 16.734375-33.742188 31.824219l-25.234375 63.0625c-2.785156 6.972656.011719 14.980468 6.628906 18.664062l89.949219 50.117188-51.582031 58.003906v-40.890625c0-8.28125-6.714844-15-15-15s-15 6.71875-15 15v58.179687l-211-84.398437zm251.402344 186.804688 55.164062-62.035157 14.195313 85.164063h-11.539063zm200.597656-27.984375-12.777344 51.113281h-33.34375l11.40625-45.628906c.296875-1.191407.449219-2.414063.449219-3.636719 0-23.515625-6.105469-46.839844-17.707031-67.539062l-7.664063-13.511719 36.191407-13.160157c15.371093 26.691407 23.445312 56.835938 23.445312 87.871094zm0 0"/></svg>