<svg width="512" height="511" xmlns="http://www.w3.org/2000/svg">

 <!-- Created with Method Draw - http://github.com/duopixel/Method-Draw/ -->

 <g>
  <title>Layer 1</title>
  <ellipse ry="206" rx="206" id="svg_3" cy="241.3375" cx="259.5" stroke-opacity="null" stroke-width="NaN" stroke="null" fill="#216591"/>
  <g stroke="null" id="svg_10">
   <path stroke="null" id="svg_8" d="m381.64834,256.537376l-37.012003,0l-12.539073,-33.1082l27.727442,-15.809607c6.280559,-3.585168 8.757509,-11.525047 5.637271,-18.072133c0,-0.002006 0,-0.002006 0,-0.002006c-4.501001,-9.442881 -10.368733,-18.228447 -17.44087,-26.112211c-2.160321,-2.406809 -5.274546,-3.533065 -8.438874,-3.080155c-12.066125,-13.470938 -27.438865,-24.040069 -44.611197,-30.64327c-18.50901,-7.118233 -38.837656,-9.482963 -58.791552,-6.837674c-30.99397,4.108213 -58.875719,19.494979 -78.508974,43.326632c-19.835659,24.080147 -28.59718,53.659289 -24.669326,83.288528c1.300602,9.807611 6.799597,25.150288 9.959918,33.420823c0.587173,1.533065 2.04609,2.474949 3.595187,2.474949c0.456911,0 0.921841,-0.082161 1.372744,-0.254507c1.985969,-0.757513 2.979956,-2.981962 2.220437,-4.967931c-5.176348,-13.541079 -8.645285,-25.090166 -9.521035,-31.685354c-3.643283,-27.488962 4.517033,-54.971917 22.981954,-77.38473c18.388767,-22.324634 44.521017,-36.739458 73.579115,-40.593164c18.681351,-2.474949 37.707394,-0.266532 55.020008,6.392783c15.609214,6.004007 29.619225,15.507004 40.733446,27.59718c-0.486974,0.729456 -0.879757,1.535071 -1.162321,2.402802c-2.713429,8.344687 -1.330661,17.613216 3.695386,24.801589l2.422846,3.599199l-72.589139,41.450876c-1.603206,0.915833 -3.1022,2.014026 -4.456911,3.262526c-2.979956,2.745488 -5.250496,6.22645 -6.565124,10.062118l-1.266532,3.693385c-11.679355,1.17034 -21.627243,9.460913 -24.731454,20.963916c-0.553103,2.052103 0.661326,4.164328 2.711423,4.717431c2.054109,0.555109 4.164328,-0.661321 4.717431,-2.713424c2.448898,-9.076149 10.735464,-15.414824 20.150293,-15.414824c11.507004,0 20.869724,9.360719 20.869724,20.867728c0,11.50901 -9.36272,20.869724 -20.869724,20.869724c-8.551098,0 -16.374741,-5.354706 -19.464921,-13.326645c-0.769539,-1.981962 -2.997994,-2.963924 -4.977951,-2.196392c-1.981967,0.767533 -2.96593,2.995988 -2.196392,4.977956c4.230457,10.909811 14.935863,18.240467 26.639263,18.240467c13.539068,0 24.907801,-9.466926 27.833649,-22.130249l36.246476,0c2.731462,2.883769 4.276547,6.719437 4.276547,10.725445c0,4.234469 -1.753502,8.340681 -4.813623,11.266528l-0.975949,0.933866c-15.102196,14.454906 -33.895771,32.444873 -52.04807,26.432852c-34.537054,-11.438869 -58.997963,-10.993983 -72.921801,-10.424843l-24.490968,-31.8597c-3.897795,-5.068135 -10.891778,-6.703405 -16.63326,-3.88577c-2.689379,1.320641 -4.703405,3.611219 -5.671341,6.446887c-0.967931,2.835673 -0.773545,5.877757 0.547096,8.56713l12.444882,25.350686c2.723449,5.543084 8.290578,8.829656 14.156305,8.829656c1.78357,0 3.595192,-0.302603 5.360719,-0.939879l13.204401,-4.76152c13.156305,-0.565129 37.188355,-1.408815 71.583127,9.981958c3.382764,1.120243 6.721443,1.627256 10.010015,1.627256c18.641274,0 35.677336,-16.306606 49.779532,-29.807603l0.973949,-0.93186c4.569136,-4.370738 7.190374,-10.503002 7.190374,-16.825645c0,-3.773546 -0.917834,-7.446887 -2.619233,-10.725445l19.254498,0l8.138271,21.488967c2.074148,6.02204 7.735464,10.062118 14.110209,10.062118l9.02204,0c8.228451,0 14.923837,-6.69338 14.923837,-14.923837l0,-35.603188c0.002006,-7.222438 -5.875746,-13.102196 -13.102196,-13.102196zm-205.076038,76.282525c-3.881763,1.400801 -8.180355,-0.336673 -9.999996,-4.042084l-12.444882,-25.348685c-0.414828,-0.845687 -0.474949,-1.801598 -0.172346,-2.691379c0.304609,-0.889777 0.935872,-1.609218 1.781564,-2.024046c0.811622,-0.396795 1.679359,-0.589179 2.539077,-0.589179c1.755507,0 3.47695,0.797596 4.6012,2.256513l22.49698,29.26852l-8.801598,3.17034zm205.076038,-68.587138c2.981962,0 5.408815,2.426853 5.408815,5.408815l0,11.280554l-33.184348,0l-6.320642,-16.689369l34.096175,0zm-45.240454,-7.695387l-9.803604,0l-13.3046,-19.070127c-0.673346,-0.965935 -1.7495,-1.565134 -2.915833,-1.637276l14.947888,-8.537072l11.076149,29.244475zm5.883764,-87.967887c6.581156,7.336669 12.040073,15.507004 16.222434,24.286558c1.396795,2.931865 0.296596,6.480962 -2.494988,8.076149l-3.651302,2.072142l-10.525042,-15.637261c-0.014031,-0.020044 -0.028057,-0.040083 -0.042084,-0.062127c-3.665333,-5.224444 -4.673347,-11.965926 -2.701404,-18.036062c0.306615,-0.941885 1.094186,-1.204405 1.418839,-1.272545c0.114225,-0.024046 0.258514,-0.044084 0.418834,-0.044084c0.400801,0 0.911826,0.124245 1.354711,0.617232zm-76.220402,77.092141c0.927858,-0.855712 1.955911,-1.607212 3.056115,-2.234468l73.080115,-41.735447l3.45491,5.130258l-73.476915,41.959895c-2.246489,1.280564 -3.943886,3.334667 -4.783565,5.781559l-0.442885,1.29459c-1.877751,-0.793584 -3.857713,-1.390782 -5.913822,-1.769539l0.523045,-1.525046c0.901802,-2.631263 2.458917,-5.018033 4.503002,-6.901802zm7.639277,14.228452l0.971943,-2.831661c0.230461,-0.675352 0.699398,-1.242487 1.318635,-1.595192l11.695387,-6.679354c0.278558,7.432861 3.593181,14.454901 9.19238,19.396781l14.436863,12.741477l-26.919822,0c-0.368737,-8.494983 -4.466936,-16.038068 -10.695387,-21.032051zm49.244461,21.032051l-20.971934,-18.511011c-4.200398,-3.707411 -6.611214,-9.048092 -6.611214,-14.649292c0,-1.188378 0.110218,-2.376751 0.326649,-3.547091l1.222448,-0.697397l11.216426,0l13.3046,19.070132c0.719442,1.032064 1.897795,1.645289 3.156314,1.645289l14.72544,0l6.320636,16.689369l-22.689365,0zm56.873719,31.551085l-9.02204,0c-3.100199,0 -5.849699,-1.971943 -6.845688,-4.907815c-0.014031,-0.042084 -0.030063,-0.084167 -0.046095,-0.126251l-7.128252,-18.821633l30.270526,0l0,16.627247c0,3.985969 -3.242482,7.228451 -7.228451,7.228451zm0,0"/>
   <path stroke="null" id="svg_9" d="m269.045197,282.182652c0,-7.264522 -5.909816,-13.174343 -13.174343,-13.174343c-7.264522,0 -13.174338,5.909821 -13.174338,13.174343c0,7.264527 5.909816,13.174343 13.174338,13.174343c7.264527,0 13.174343,-5.909816 13.174343,-13.174343zm-18.653294,0c0,-3.02204 2.458912,-5.478956 5.478951,-5.478956c3.022045,0 5.478956,2.456916 5.478956,5.478956s-2.456911,5.478956 -5.478956,5.478956c-3.020039,0 -5.478951,-2.456911 -5.478951,-5.478956zm0,0"/>
  </g>
 </g>
</svg>